<svg width="25" height="24" viewBox="0 0 25 24" fill="none" xmlns="http://www.w3.org/2000/svg">
<path d="M10.7093 1.08594C15.7394 1.08604 19.8353 5.17729 19.8353 10.2119C19.8352 12.4494 19.023 14.4931 17.6868 16.0811L23.1859 21.5752L23.2405 21.6348C23.4926 21.9434 23.4739 22.3965 23.1859 22.6846C23.0326 22.8377 22.8329 22.915 22.6292 22.915C22.4255 22.915 22.2258 22.8378 22.0726 22.6846L16.5784 17.1904C14.9902 18.5264 12.9423 19.3378 10.7093 19.3379C5.6792 19.3379 1.58342 15.2465 1.58331 10.2119C1.58331 5.17723 5.67913 1.08594 10.7093 1.08594ZM10.7093 2.65625C6.54488 2.65625 3.15363 6.0475 3.15363 10.2119C3.15373 14.3762 6.54494 17.7676 10.7093 17.7676C14.8736 17.7675 18.2648 14.3762 18.265 10.2119C18.265 6.04329 14.8737 2.65635 10.7093 2.65625Z" fill="black" stroke="black" stroke-width="0.5"/>
</svg>
